<svg xmlns="http://www.w3.org/2000/svg" width="512" height="512" viewBox="0 0 512 512" version="1.1">
	<path d="M 225 59.672 C 146.252 65.312, 73.899 96.688, 15.976 150.316 L 8.647 157.101 11.128 159.583 L 13.610 162.064 22.529 153.917 C 72.737 108.055, 132.624 79.549, 199.789 69.544 C 245.156 62.785, 297.487 66.418, 343 79.487 C 394.443 94.257, 443.926 122.336, 481.095 157.849 L 489.500 165.879 471.831 183.605 L 454.161 201.331 445.561 193.285 C 407.497 157.672, 358.899 132.816, 306.500 122.160 C 292.997 119.414, 291.501 119.193, 274.921 117.506 C 207.511 110.649, 140.271 129.269, 85.500 169.961 C 74.774 177.929, 69.297 182.594, 58.138 193.264 L 49.776 201.260 71.388 222.888 L 93 244.517 93 253.207 C 93 279.011, 101.108 311.182, 114.244 337.500 C 123.220 355.484, 133.094 369.160, 147.467 383.519 C 159.680 395.719, 166.555 402, 167.695 402 C 167.964 402, 169.329 402.900, 170.727 404 L 173.270 406 135.103 406 C 102.936 406, 96.851 406.225, 96.389 407.430 C 95.624 409.423, 99.680 423.720, 102.219 427.978 C 103.374 429.915, 105.421 432.701, 106.768 434.169 C 108.233 435.764, 108.911 437.335, 108.455 438.073 C 107.974 438.852, 108.103 439.054, 108.805 438.621 C 109.418 438.242, 111.625 439.443, 113.710 441.289 C 118.142 445.215, 125.269 449.275, 133 452.279 C 138.485 454.410, 138.819 454.417, 252.395 454.729 C 378.786 455.076, 371.455 455.424, 385.845 448.388 C 394.219 444.294, 404.037 435.300, 408.488 427.647 C 411.347 422.733, 413.956 413.767, 413.984 408.762 L 414 406.024 375.986 405.762 L 337.972 405.500 345.225 400 C 349.214 396.975, 353.788 393.262, 355.388 391.750 C 358.165 389.125, 358.755 389, 368.398 388.992 C 402.414 388.967, 434.087 373.536, 447.922 350.248 C 450.165 346.473, 452 342.649, 452 341.751 C 452 340.853, 452.394 339.875, 452.875 339.577 C 454.496 338.575, 456.262 323.272, 455.538 316.506 C 454.819 309.795, 452.271 301.413, 449.005 295.010 C 444.412 286.007, 432.997 275.340, 422.777 270.501 L 417.108 267.817 417.707 255.908 C 418.164 246.805, 418.015 244, 417.071 244 C 416.392 244, 411.388 239.885, 405.950 234.855 C 330.441 165.009, 215.388 153.153, 133 206.727 C 122.358 213.648, 109.243 223.775, 101.777 230.839 L 96.054 236.253 89.277 230.197 C 85.550 226.866, 77.411 219.013, 71.192 212.746 L 59.884 201.352 66.705 194.926 C 99.222 164.296, 139.813 142.166, 184 130.978 C 229.060 119.569, 281.052 120.886, 327.500 134.612 C 373.311 148.150, 409.714 169.095, 443.857 201.559 L 454.149 211.345 476.825 188.601 L 499.500 165.856 486.786 153.591 C 438.653 107.156, 375.533 75.663, 307.327 64.051 C 283.591 60.010, 247.257 58.078, 225 59.672 M 229.500 181.107 C 188.675 184.627, 150.130 200.529, 116.500 227.725 C 111 232.173, 104.712 237.664, 102.527 239.927 L 98.553 244.042 142.027 243.761 L 185.500 243.480 193.500 240.245 C 210.180 233.499, 226.295 230.685, 248.500 230.641 C 268.524 230.602, 284.959 233.257, 303.713 239.559 L 316.926 244 361.213 243.959 L 405.500 243.918 401 239.819 C 383.868 224.215, 368.161 213.546, 347.500 203.479 C 317.371 188.798, 289.194 181.917, 254 180.646 C 246.575 180.378, 235.550 180.585, 229.500 181.107 M 234.694 238.004 C 225.403 238.888, 211.564 241.437, 207.761 242.965 C 206.356 243.529, 222.158 243.865, 249.500 243.851 C 295.447 243.827, 297.035 243.604, 276.500 240.060 C 262.915 237.715, 246.320 236.899, 234.694 238.004 M 412 295.060 C 412 297.884, 404.738 319.225, 400.487 328.894 C 396.582 337.776, 390.628 348.597, 384.815 357.378 C 382.675 360.611, 381.127 363.460, 381.375 363.708 C 382.043 364.376, 393.675 361.297, 400 358.779 C 414.026 353.194, 425.899 342.914, 429.255 333.450 C 431.477 327.184, 431.510 316.859, 429.329 310.428 C 428.148 306.948, 425.825 303.663, 421.421 299.250 C 414.963 292.777, 412 291.459, 412 295.060" stroke="none" fill="black" fill-rule="evenodd"/>
</svg>